<svg xmlns="http://www.w3.org/2000/svg" width="25" height="25" fill="none" viewBox="0 0 25 25"><path fill="#0D9373" d="M10.7104 13.8779H3.32717C2.58023 13.8779 2.20599 14.781 2.73435 15.3093L10.353 22.9279C10.8811 23.4561 11.7844 23.0821 11.7844 22.3351V14.9519C11.7844 14.3588 11.3035 13.8779 10.7104 13.8779Z"/><path fill="#0D9373" d="M24.3098 11.0498L14.6125 1.35245C14.1947 0.934713 13.6282 0.700012 13.0375 0.700012H1.93441C1.39767 0.700012 0.962479 1.13519 0.962479 1.67194V11.3062C0.962479 11.7023 1.28351 12.0233 1.67961 12.0233H10.7106C12.3279 12.0233 13.639 13.3343 13.639 14.9516V23.9829C13.639 24.379 13.96 24.7 14.3561 24.7H23.9906C24.5273 24.7 24.9625 24.2648 24.9625 23.7281V12.6249C24.9625 12.0341 24.7278 11.4676 24.31 11.05L24.3098 11.0498Z"/></svg>