<svg width="428" height="115" viewBox="0 0 428 115" fill="none" xmlns="http://www.w3.org/2000/svg">
<path d="M142.985 13.0919V43.7471H137.192V13.0919H126.529V7.96556H153.647V13.0919H142.985ZM164.449 44.3623C162.536 44.3623 160.827 44.0376 159.323 43.3883C157.819 42.739 156.538 41.8162 155.478 40.6201C154.419 39.3898 153.599 37.9202 153.018 36.2115C152.471 34.4685 152.198 32.5376 152.198 30.4188C152.198 28.2999 152.471 26.3861 153.018 24.6773C153.599 22.9344 154.419 21.4648 155.478 20.2687C156.538 19.0384 157.819 18.0985 159.323 17.4492C160.827 16.7999 162.536 16.4752 164.449 16.4752C166.397 16.4752 168.106 16.817 169.576 17.5005C171.079 18.184 172.327 19.1409 173.318 20.3712C174.309 21.5673 175.044 22.9685 175.522 24.5748C176.035 26.181 176.291 27.9069 176.291 29.7523V31.8541H157.99V32.7256C157.99 34.7761 158.588 36.4678 159.784 37.8006C161.015 39.0993 162.758 39.7486 165.013 39.7486C166.654 39.7486 168.038 39.3898 169.166 38.6721C170.293 37.9544 171.25 36.9804 172.036 35.7501L175.317 38.9797C174.326 40.6201 172.891 41.9358 171.011 42.9269C169.131 43.8838 166.944 44.3623 164.449 44.3623ZM164.449 20.8326C163.492 20.8326 162.604 21.0034 161.784 21.3452C160.998 21.687 160.314 22.1654 159.733 22.7806C159.186 23.3957 158.759 24.1305 158.452 24.9849C158.144 25.8393 157.99 26.7791 157.99 27.8043V28.1632H170.396V27.6505C170.396 25.6 169.866 23.9596 168.807 22.7293C167.747 21.4648 166.295 20.8326 164.449 20.8326ZM191.243 44.3623C189.329 44.3623 187.62 44.0376 186.116 43.3883C184.613 42.739 183.348 41.8162 182.323 40.6201C181.298 39.3898 180.512 37.9202 179.965 36.2115C179.418 34.4685 179.145 32.5376 179.145 30.4188C179.145 28.2999 179.418 26.3861 179.965 24.6773C180.512 22.9344 181.298 21.4648 182.323 20.2687C183.348 19.0384 184.613 18.0985 186.116 17.4492C187.62 16.7999 189.329 16.4752 191.243 16.4752C193.908 16.4752 196.096 17.0733 197.804 18.2694C199.513 19.4656 200.761 21.0547 201.547 23.0369L196.933 25.1899C196.557 23.9596 195.891 22.9856 194.934 22.2679C194.011 21.5161 192.781 21.1401 191.243 21.1401C189.192 21.1401 187.637 21.7895 186.578 23.0881C185.553 24.3526 185.04 26.0101 185.04 28.0607V32.8281C185.04 34.8786 185.553 36.5532 186.578 37.8519C187.637 39.1164 189.192 39.7486 191.243 39.7486C192.883 39.7486 194.182 39.3556 195.139 38.5696C196.13 37.7494 196.916 36.6728 197.497 35.34L201.752 37.5956C200.863 39.7828 199.53 41.4574 197.753 42.6193C195.976 43.7813 193.806 44.3623 191.243 44.3623ZM205.533 5.81251H211.121V21.499H211.377C211.958 20.0636 212.83 18.8675 213.991 17.9106C215.188 16.9537 216.811 16.4752 218.861 16.4752C221.595 16.4752 223.714 17.3809 225.218 19.1922C226.756 20.9693 227.525 23.5153 227.525 26.8303V43.7471H221.937V27.4968C221.937 23.3615 220.263 21.2939 216.913 21.2939C216.196 21.2939 215.478 21.3965 214.76 21.6015C214.077 21.7724 213.462 22.0458 212.915 22.4217C212.368 22.7977 211.924 23.2761 211.582 23.8571C211.275 24.4381 211.121 25.1045 211.121 25.8563V43.7471H205.533V5.81251ZM233.732 43.7471V17.0904H239.319V21.499H239.576C240.157 20.0636 241.028 18.8675 242.19 17.9106C243.386 16.9537 245.01 16.4752 247.06 16.4752C249.794 16.4752 251.913 17.3809 253.417 19.1922C254.955 20.9693 255.724 23.5153 255.724 26.8303V43.7471H250.136V27.548C250.136 23.3786 248.461 21.2939 245.112 21.2939C244.394 21.2939 243.677 21.3965 242.959 21.6015C242.276 21.7724 241.66 22.0458 241.114 22.4217C240.567 22.7977 240.123 23.2761 239.781 23.8571C239.473 24.4381 239.319 25.1216 239.319 25.9076V43.7471H233.732ZM264.75 12.3229C263.588 12.3229 262.734 12.0495 262.187 11.5027C261.674 10.9559 261.418 10.2553 261.418 9.40092V8.52945C261.418 7.67507 261.674 6.97447 262.187 6.42767C262.734 5.88086 263.588 5.60746 264.75 5.60746C265.912 5.60746 266.749 5.88086 267.262 6.42767C267.774 6.97447 268.031 7.67507 268.031 8.52945V9.40092C268.031 10.2553 267.774 10.9559 267.262 11.5027C266.749 12.0495 265.912 12.3229 264.75 12.3229ZM261.93 17.0904H267.518V43.7471H261.93V17.0904ZM284.263 44.3623C282.349 44.3623 280.64 44.0376 279.137 43.3883C277.633 42.739 276.369 41.8162 275.343 40.6201C274.318 39.3898 273.532 37.9202 272.985 36.2115C272.438 34.4685 272.165 32.5376 272.165 30.4188C272.165 28.2999 272.438 26.3861 272.985 24.6773C273.532 22.9344 274.318 21.4648 275.343 20.2687C276.369 19.0384 277.633 18.0985 279.137 17.4492C280.64 16.7999 282.349 16.4752 284.263 16.4752C286.929 16.4752 289.116 17.0733 290.825 18.2694C292.533 19.4656 293.781 21.0547 294.567 23.0369L289.953 25.1899C289.577 23.9596 288.911 22.9856 287.954 22.2679C287.031 21.5161 285.801 21.1401 284.263 21.1401C282.213 21.1401 280.658 21.7895 279.598 23.0881C278.573 24.3526 278.06 26.0101 278.06 28.0607V32.8281C278.06 34.8786 278.573 36.5532 279.598 37.8519C280.658 39.1164 282.213 39.7486 284.263 39.7486C285.903 39.7486 287.202 39.3556 288.159 38.5696C289.15 37.7494 289.936 36.6728 290.517 35.34L294.772 37.5956C293.883 39.7828 292.551 41.4574 290.773 42.6193C288.996 43.7813 286.826 44.3623 284.263 44.3623ZM318.085 43.7471C316.615 43.7471 315.487 43.337 314.701 42.5168C313.915 41.6624 313.437 40.5859 313.266 39.2873H313.01C312.497 40.9618 311.557 42.2263 310.19 43.0807C308.823 43.9351 307.166 44.3623 305.218 44.3623C302.449 44.3623 300.313 43.6446 298.81 42.2092C297.34 40.7739 296.605 38.843 296.605 36.4165C296.605 33.7508 297.562 31.7516 299.476 30.4188C301.424 29.0859 304.261 28.4195 307.986 28.4195H312.805V26.1639C312.805 24.5235 312.36 23.259 311.472 22.3705C310.583 21.4819 309.199 21.0376 307.319 21.0376C305.747 21.0376 304.466 21.3794 303.475 22.0629C302.484 22.7464 301.646 23.6179 300.963 24.6773L297.631 21.6528C298.519 20.1491 299.767 18.9188 301.373 17.9618C302.979 16.9708 305.081 16.4752 307.678 16.4752C311.13 16.4752 313.779 17.2783 315.624 18.8846C317.469 20.4908 318.392 22.7977 318.392 25.8051V39.1847H321.212V43.7471H318.085ZM306.807 40.1075C308.55 40.1075 309.985 39.7315 311.113 38.9797C312.241 38.1936 312.805 37.1513 312.805 35.8526V32.0079H308.088C304.227 32.0079 302.296 33.204 302.296 35.5963V36.519C302.296 37.7152 302.689 38.6208 303.475 39.236C304.295 39.817 305.406 40.1075 306.807 40.1075ZM330.84 43.7471C328.926 43.7471 327.491 43.2687 326.534 42.3118C325.611 41.3207 325.15 39.9537 325.15 38.2107V5.81251H330.738V39.1847H334.429V43.7471H330.84ZM134.988 103.747L126.529 67.9656H132.424L136.064 85.1899L138.576 97.0829H138.73L141.601 85.1899L145.855 67.9656H152.314L156.518 85.1899L159.338 97.0317H159.491L162.106 85.1899L165.848 67.9656H171.538L162.721 103.747H156.21L151.648 85.2412L148.982 74.3734H148.88L146.163 85.2412L141.498 103.747H134.988ZM174.717 103.747V77.0904H180.305V82.2167H180.561C180.937 80.8497 181.723 79.6535 182.919 78.6283C184.115 77.603 185.773 77.0904 187.892 77.0904H189.378V82.473H187.174C184.953 82.473 183.244 82.8318 182.048 83.5495C180.886 84.2672 180.305 85.3266 180.305 86.7278V103.747H174.717ZM195.623 72.3229C194.461 72.3229 193.607 72.0495 193.06 71.5027C192.547 70.9559 192.291 70.2553 192.291 69.4009V68.5295C192.291 67.6751 192.547 66.9745 193.06 66.4277C193.607 65.8809 194.461 65.6075 195.623 65.6075C196.785 65.6075 197.622 65.8809 198.135 66.4277C198.647 66.9745 198.904 67.6751 198.904 68.5295V69.4009C198.904 70.2553 198.647 70.9559 198.135 71.5027C197.622 72.0495 196.785 72.3229 195.623 72.3229ZM192.803 77.0904H198.391V103.747H192.803V77.0904ZM212.214 103.747C210.266 103.747 208.797 103.252 207.805 102.261C206.814 101.235 206.319 99.7999 206.319 97.9544V81.6528H202.167V77.0904H204.422C205.345 77.0904 205.977 76.8853 206.319 76.4752C206.695 76.0651 206.883 75.3987 206.883 74.476V69.811H211.907V77.0904H217.494V81.6528H211.907V99.1847H217.084V103.747H212.214ZM224.837 72.3229C223.675 72.3229 222.82 72.0495 222.274 71.5027C221.761 70.9559 221.505 70.2553 221.505 69.4009V68.5295C221.505 67.6751 221.761 66.9745 222.274 66.4277C222.82 65.8809 223.675 65.6075 224.837 65.6075C225.999 65.6075 226.836 65.8809 227.349 66.4277C227.861 66.9745 228.118 67.6751 228.118 68.5295V69.4009C228.118 70.2553 227.861 70.9559 227.349 71.5027C226.836 72.0495 225.999 72.3229 224.837 72.3229ZM222.017 77.0904H227.605V103.747H222.017V77.0904ZM234.046 103.747V77.0904H239.634V81.499H239.89C240.471 80.0636 241.343 78.8675 242.505 77.9106C243.701 76.9537 245.324 76.4752 247.375 76.4752C250.109 76.4752 252.227 77.3809 253.731 79.1922C255.269 80.9693 256.038 83.5153 256.038 86.8303V103.747H250.45V87.548C250.45 83.3786 248.776 81.2939 245.427 81.2939C244.709 81.2939 243.991 81.3965 243.273 81.6015C242.59 81.7724 241.975 82.0458 241.428 82.4217C240.881 82.7977 240.437 83.2761 240.095 83.8571C239.788 84.4381 239.634 85.1216 239.634 85.9076V103.747H234.046ZM285.621 106.259C285.621 109.027 284.561 111.112 282.442 112.513C280.324 113.914 276.872 114.615 272.087 114.615C269.9 114.615 268.037 114.461 266.5 114.154C264.996 113.88 263.748 113.47 262.757 112.923C261.8 112.376 261.1 111.71 260.656 110.924C260.211 110.138 259.989 109.232 259.989 108.207C259.989 106.737 260.382 105.593 261.168 104.772C261.988 103.952 263.116 103.388 264.552 103.081V102.517C262.535 101.867 261.527 100.5 261.527 98.4158C261.527 97.0488 261.988 96.0064 262.911 95.2887C263.834 94.5369 264.945 94.0072 266.243 93.6996V93.4945C264.671 92.7427 263.458 91.7003 262.604 90.3675C261.783 89.0005 261.373 87.4113 261.373 85.6C261.373 82.866 262.279 80.6617 264.09 78.9871C265.936 77.3125 268.567 76.4752 271.985 76.4752C273.864 76.4752 275.471 76.7486 276.803 77.2954V76.5777C276.803 75.3816 277.077 74.4589 277.624 73.8095C278.205 73.126 279.093 72.7843 280.289 72.7843H284.39V77.2954H278.957V78.3719C280.153 79.158 281.075 80.1832 281.725 81.4477C282.374 82.678 282.699 84.0621 282.699 85.6C282.699 88.2999 281.776 90.4871 279.931 92.1617C278.085 93.8021 275.454 94.6223 272.036 94.6223C270.737 94.6223 269.575 94.4856 268.55 94.2122C267.867 94.4514 267.269 94.7932 266.756 95.2375C266.243 95.6476 265.987 96.1944 265.987 96.8779C265.987 97.5956 266.312 98.1082 266.961 98.4158C267.61 98.7234 268.533 98.8771 269.729 98.8771H276.291C279.572 98.8771 281.947 99.5436 283.416 100.876C284.886 102.175 285.621 103.969 285.621 106.259ZM280.392 106.874C280.392 105.951 280.033 105.217 279.315 104.67C278.632 104.123 277.367 103.85 275.522 103.85H266.5C265.269 104.567 264.654 105.593 264.654 106.925C264.654 108.019 265.081 108.891 265.936 109.54C266.824 110.223 268.311 110.565 270.396 110.565H273.881C278.222 110.565 280.392 109.335 280.392 106.874ZM272.036 90.5725C273.676 90.5725 274.941 90.2137 275.829 89.496C276.752 88.7442 277.214 87.5993 277.214 86.0614V85.0361C277.214 83.4982 276.752 82.3705 275.829 81.6528C274.941 80.9009 273.676 80.525 272.036 80.525C270.396 80.525 269.114 80.9009 268.191 81.6528C267.303 82.3705 266.858 83.4982 266.858 85.0361V86.0614C266.858 87.5993 267.303 88.7442 268.191 89.496C269.114 90.2137 270.396 90.5725 272.036 90.5725ZM322.245 98.3133H322.04C321.664 100.056 320.639 101.509 318.964 102.671C317.324 103.798 315.136 104.362 312.402 104.362C310.284 104.362 308.318 103.969 306.507 103.183C304.696 102.363 303.124 101.184 301.791 99.6461C300.492 98.074 299.467 96.1431 298.715 93.8534C297.998 91.5295 297.639 88.8638 297.639 85.8563C297.639 82.8831 298.015 80.2516 298.766 77.9618C299.518 75.6379 300.578 73.6899 301.945 72.1179C303.312 70.5458 304.952 69.3667 306.866 68.5807C308.78 67.7605 310.916 67.3504 313.274 67.3504C316.486 67.3504 319.203 68.0681 321.425 69.5034C323.646 70.9046 325.372 72.8697 326.602 75.3987L321.886 78.1669C321.203 76.4923 320.143 75.1424 318.708 74.1171C317.272 73.0577 315.461 72.528 313.274 72.528C310.437 72.528 308.148 73.4336 306.405 75.2449C304.696 77.0562 303.842 79.6193 303.842 82.9344V88.7783C303.842 92.0933 304.696 94.6565 306.405 96.4678C308.148 98.2791 310.437 99.1847 313.274 99.1847C314.402 99.1847 315.478 99.048 316.503 98.7746C317.529 98.467 318.417 98.0399 319.169 97.493C319.955 96.9121 320.57 96.2115 321.015 95.3913C321.493 94.5369 321.732 93.5458 321.732 92.418V89.6498H314.35V84.6773H327.32V103.747H322.245V98.3133ZM349.572 99.3385H349.367C349.128 99.9878 348.803 100.62 348.393 101.235C348.017 101.85 347.522 102.397 346.906 102.876C346.325 103.32 345.608 103.679 344.753 103.952C343.933 104.226 342.976 104.362 341.883 104.362C339.114 104.362 336.961 103.474 335.424 101.697C333.92 99.9195 333.168 97.3734 333.168 94.0584V77.0904H338.756V93.3407C338.756 97.476 340.464 99.5436 343.882 99.5436C344.6 99.5436 345.3 99.4581 345.984 99.2873C346.667 99.0822 347.265 98.7917 347.778 98.4158C348.325 98.0399 348.752 97.5614 349.059 96.9804C349.401 96.3994 349.572 95.7159 349.572 94.9299V77.0904H355.16V103.747H349.572V99.3385ZM364.442 72.3229C363.28 72.3229 362.426 72.0495 361.879 71.5027C361.367 70.9559 361.11 70.2553 361.11 69.4009V68.5295C361.11 67.6751 361.367 66.9745 361.879 66.4277C362.426 65.8809 363.28 65.6075 364.442 65.6075C365.604 65.6075 366.442 65.8809 366.954 66.4277C367.467 66.9745 367.723 67.6751 367.723 68.5295V69.4009C367.723 70.2553 367.467 70.9559 366.954 71.5027C366.442 72.0495 365.604 72.3229 364.442 72.3229ZM361.623 77.0904H367.211V103.747H361.623V77.0904ZM390.415 99.3385H390.158C389.577 100.911 388.62 102.141 387.288 103.029C385.989 103.918 384.451 104.362 382.674 104.362C379.291 104.362 376.676 103.149 374.831 100.723C372.985 98.262 372.063 94.8274 372.063 90.4188C372.063 86.0101 372.985 82.5926 374.831 80.1662C376.676 77.7055 379.291 76.4752 382.674 76.4752C384.451 76.4752 385.989 76.9195 387.288 77.8081C388.62 78.6624 389.577 79.8927 390.158 81.499H390.415V65.8125H396.002V103.747H390.415V99.3385ZM384.366 99.5436C386.074 99.5436 387.51 99.1335 388.672 98.3133C389.834 97.4589 390.415 96.3482 390.415 94.9812V85.8563C390.415 84.4893 389.834 83.3957 388.672 82.5755C387.51 81.7211 386.074 81.2939 384.366 81.2939C382.418 81.2939 380.863 81.9262 379.701 83.1907C378.539 84.421 377.958 86.0614 377.958 88.1119V92.7256C377.958 94.7761 378.539 96.4336 379.701 97.6981C380.863 98.9284 382.418 99.5436 384.366 99.5436ZM412.909 104.362C410.995 104.362 409.286 104.038 407.782 103.388C406.279 102.739 404.997 101.816 403.938 100.62C402.878 99.3898 402.058 97.9202 401.477 96.2115C400.93 94.4685 400.657 92.5376 400.657 90.4188C400.657 88.2999 400.93 86.3861 401.477 84.6773C402.058 82.9344 402.878 81.4648 403.938 80.2687C404.997 79.0384 406.279 78.0985 407.782 77.4492C409.286 76.7999 410.995 76.4752 412.909 76.4752C414.857 76.4752 416.566 76.817 418.035 77.5005C419.539 78.184 420.786 79.1409 421.777 80.3712C422.768 81.5673 423.503 82.9685 423.982 84.5748C424.494 86.181 424.75 87.9069 424.75 89.7523V91.8541H406.45V92.7256C406.45 94.7761 407.048 96.4678 408.244 97.8006C409.474 99.0993 411.217 99.7486 413.473 99.7486C415.113 99.7486 416.497 99.3898 417.625 98.6721C418.753 97.9544 419.71 96.9804 420.496 95.7501L423.776 98.9797C422.785 100.62 421.35 101.936 419.47 102.927C417.591 103.884 415.404 104.362 412.909 104.362ZM412.909 80.8326C411.952 80.8326 411.063 81.0034 410.243 81.3452C409.457 81.687 408.774 82.1654 408.193 82.7806C407.646 83.3957 407.219 84.1305 406.911 84.9849C406.603 85.8393 406.45 86.7791 406.45 87.8043V88.1632H418.855V87.6505C418.855 85.6 418.326 83.9596 417.266 82.7293C416.207 81.4648 414.754 80.8326 412.909 80.8326Z" fill="white"/>
<path d="M44.1505 59.685H10.7105C7.32748 59.685 5.63248 63.775 8.02548 66.168L42.5315 100.674C44.9235 103.066 49.0145 101.372 49.0145 97.989V64.549C49.0145 61.863 46.8365 59.685 44.1505 59.685Z" fill="#18E299"/>
<path d="M105.744 46.876L61.8234 2.955C59.9314 1.063 57.3654 0 54.6904 0H4.40247C1.97147 0 0.000427246 1.971 0.000427246 4.402V48.037C0.000427246 49.831 1.45441 51.285 3.24841 51.285H44.1514C51.4764 51.285 57.4144 57.223 57.4144 64.548V105.452C57.4144 107.246 58.8684 108.7 60.6624 108.7H104.298C106.729 108.7 108.7 106.729 108.7 104.298V54.01C108.7 51.334 107.637 48.768 105.745 46.877L105.744 46.876Z" fill="#18E299"/>
</svg>
