<svg xmlns="http://www.w3.org/2000/svg" width="428" height="116" fill="none" viewBox="0 0 428 116"><path fill="#000" d="M142.985 13.946V44.6013H137.192V13.946H126.529V8.81968H153.647V13.946H142.985ZM164.449 45.2164C162.536 45.2164 160.827 44.8917 159.323 44.2424C157.819 43.5931 156.538 42.6704 155.478 41.4742C154.419 40.2439 153.599 38.7744 153.018 37.0656C152.471 35.3227 152.198 33.3917 152.198 31.2729C152.198 29.154 152.471 27.2402 153.018 25.5314C153.599 23.7885 154.419 22.3189 155.478 21.1228C156.538 19.8925 157.819 18.9527 159.323 18.3033C160.827 17.654 162.536 17.3293 164.449 17.3293C166.397 17.3293 168.106 17.6711 169.576 18.3546C171.079 19.0381 172.327 19.995 173.318 21.2253C174.309 22.4215 175.044 23.8227 175.522 25.4289C176.035 27.0351 176.291 28.761 176.291 30.6065V32.7082H157.99V33.5797C157.99 35.6302 158.588 37.3219 159.784 38.6547C161.015 39.9534 162.758 40.6027 165.013 40.6027C166.654 40.6027 168.038 40.2439 169.166 39.5262C170.293 38.8085 171.25 37.8345 172.036 36.6042L175.317 39.8338C174.326 41.4742 172.891 42.79 171.011 43.781C169.131 44.738 166.944 45.2164 164.449 45.2164ZM164.449 21.6867C163.492 21.6867 162.604 21.8576 161.784 22.1993C160.998 22.5411 160.314 23.0195 159.733 23.6347C159.186 24.2498 158.759 24.9846 158.452 25.839C158.144 26.6934 157.99 27.6332 157.99 28.6585V29.0173H170.396V28.5047C170.396 26.4542 169.866 24.8137 168.807 23.5834C167.747 22.3189 166.295 21.6867 164.449 21.6867ZM191.243 45.2164C189.329 45.2164 187.62 44.8917 186.116 44.2424C184.613 43.5931 183.348 42.6704 182.323 41.4742C181.298 40.2439 180.512 38.7744 179.965 37.0656C179.418 35.3227 179.145 33.3917 179.145 31.2729C179.145 29.154 179.418 27.2402 179.965 25.5314C180.512 23.7885 181.298 22.3189 182.323 21.1228C183.348 19.8925 184.613 18.9527 186.116 18.3033C187.62 17.654 189.329 17.3293 191.243 17.3293C193.908 17.3293 196.096 17.9274 197.804 19.1235C199.513 20.3197 200.761 21.9088 201.547 23.891L196.933 26.0441C196.557 24.8137 195.891 23.8397 194.934 23.1221C194.011 22.3702 192.781 21.9943 191.243 21.9943C189.192 21.9943 187.637 22.6436 186.578 23.9423C185.553 25.2068 185.04 26.8643 185.04 28.9148V33.6822C185.04 35.7328 185.553 37.4073 186.578 38.706C187.637 39.9705 189.192 40.6027 191.243 40.6027C192.883 40.6027 194.182 40.2097 195.139 39.4237C196.13 38.6035 196.916 37.527 197.497 36.1941L201.752 38.4497C200.863 40.6369 199.53 42.3115 197.753 43.4735C195.976 44.6354 193.806 45.2164 191.243 45.2164ZM205.533 6.66664H211.121V22.3531H211.377C211.958 20.9178 212.83 19.7216 213.991 18.7647C215.188 17.8078 216.811 17.3293 218.861 17.3293C221.595 17.3293 223.714 18.235 225.218 20.0463C226.756 21.8234 227.525 24.3695 227.525 27.6845V44.6013H221.937V28.3509C221.937 24.2157 220.263 22.1481 216.913 22.1481C216.196 22.1481 215.478 22.2506 214.76 22.4556C214.077 22.6265 213.462 22.8999 212.915 23.2759C212.368 23.6518 211.924 24.1302 211.582 24.7112C211.275 25.2922 211.121 25.9586 211.121 26.7105V44.6013H205.533V6.66664ZM233.732 44.6013V17.9445H239.319V22.3531H239.576C240.157 20.9178 241.028 19.7216 242.19 18.7647C243.386 17.8078 245.01 17.3293 247.06 17.3293C249.794 17.3293 251.913 18.235 253.417 20.0463C254.955 21.8234 255.724 24.3695 255.724 27.6845V44.6013H250.136V28.4021C250.136 24.2328 248.461 22.1481 245.112 22.1481C244.394 22.1481 243.677 22.2506 242.959 22.4556C242.276 22.6265 241.66 22.8999 241.114 23.2759C240.567 23.6518 240.123 24.1302 239.781 24.7112C239.473 25.2922 239.319 25.9757 239.319 26.7617V44.6013H233.732ZM264.75 13.177C263.588 13.177 262.734 12.9036 262.187 12.3568C261.674 11.81 261.418 11.1094 261.418 10.255V9.38358C261.418 8.52919 261.674 7.8286 262.187 7.28179C262.734 6.73499 263.588 6.46159 264.75 6.46159C265.912 6.46159 266.749 6.73499 267.262 7.28179C267.774 7.8286 268.031 8.52919 268.031 9.38358V10.255C268.031 11.1094 267.774 11.81 267.262 12.3568C266.749 12.9036 265.912 13.177 264.75 13.177ZM261.93 17.9445H267.518V44.6013H261.93V17.9445ZM284.263 45.2164C282.349 45.2164 280.64 44.8917 279.137 44.2424C277.633 43.5931 276.369 42.6704 275.343 41.4742C274.318 40.2439 273.532 38.7744 272.985 37.0656C272.438 35.3227 272.165 33.3917 272.165 31.2729C272.165 29.154 272.438 27.2402 272.985 25.5314C273.532 23.7885 274.318 22.3189 275.343 21.1228C276.369 19.8925 277.633 18.9527 279.137 18.3033C280.64 17.654 282.349 17.3293 284.263 17.3293C286.929 17.3293 289.116 17.9274 290.825 19.1235C292.533 20.3197 293.781 21.9088 294.567 23.891L289.953 26.0441C289.577 24.8137 288.911 23.8397 287.954 23.1221C287.031 22.3702 285.801 21.9943 284.263 21.9943C282.213 21.9943 280.658 22.6436 279.598 23.9423C278.573 25.2068 278.06 26.8643 278.06 28.9148V33.6822C278.06 35.7328 278.573 37.4073 279.598 38.706C280.658 39.9705 282.213 40.6027 284.263 40.6027C285.903 40.6027 287.202 40.2097 288.159 39.4237C289.15 38.6035 289.936 37.527 290.517 36.1941L294.772 38.4497C293.883 40.6369 292.551 42.3115 290.773 43.4735C288.996 44.6354 286.826 45.2164 284.263 45.2164ZM318.085 44.6013C316.615 44.6013 315.487 44.1912 314.701 43.3709C313.915 42.5166 313.437 41.44 313.266 40.1414H313.01C312.497 41.816 311.557 43.0805 310.19 43.9348C308.823 44.7892 307.166 45.2164 305.218 45.2164C302.449 45.2164 300.313 44.4987 298.81 43.0634C297.34 41.628 296.605 39.6971 296.605 37.2706C296.605 34.605 297.562 32.6057 299.476 31.2729C301.424 29.94 304.261 29.2736 307.986 29.2736H312.805V27.018C312.805 25.3776 312.36 24.1131 311.472 23.2246C310.583 22.336 309.199 21.8917 307.319 21.8917C305.747 21.8917 304.466 22.2335 303.475 22.917C302.484 23.6005 301.646 24.472 300.963 25.5314L297.631 22.5069C298.519 21.0032 299.767 19.7729 301.373 18.816C302.979 17.8249 305.081 17.3293 307.678 17.3293C311.13 17.3293 313.779 18.1325 315.624 19.7387C317.469 21.3449 318.392 23.6518 318.392 26.6592V40.0389H321.212V44.6013H318.085ZM306.807 40.9616C308.55 40.9616 309.985 40.5857 311.113 39.8338C312.241 39.0478 312.805 38.0054 312.805 36.7068V32.862H308.088C304.227 32.862 302.296 34.0582 302.296 36.4504V37.3732C302.296 38.5693 302.689 39.475 303.475 40.0901C304.295 40.6711 305.406 40.9616 306.807 40.9616ZM330.84 44.6013C328.926 44.6013 327.491 44.1228 326.534 43.1659C325.611 42.1748 325.15 40.8078 325.15 39.0649V6.66664H330.738V40.0389H334.429V44.6013H330.84ZM134.988 104.601L126.529 68.8197H132.424L136.064 86.0441L138.576 97.9371H138.73L141.601 86.0441L145.855 68.8197H152.314L156.518 86.0441L159.338 97.8858H159.491L162.106 86.0441L165.848 68.8197H171.538L162.721 104.601H156.21L151.648 86.0953L148.982 75.2276H148.88L146.163 86.0953L141.498 104.601H134.988ZM174.717 104.601V77.9445H180.305V83.0708H180.561C180.937 81.7038 181.723 80.5076 182.919 79.4824C184.115 78.4571 185.773 77.9445 187.892 77.9445H189.378V83.3271H187.174C184.953 83.3271 183.244 83.686 182.048 84.4036C180.886 85.1213 180.305 86.1808 180.305 87.5819V104.601H174.717ZM195.623 73.177C194.461 73.177 193.607 72.9036 193.06 72.3568C192.547 71.81 192.291 71.1094 192.291 70.255V69.3836C192.291 68.5292 192.547 67.8286 193.06 67.2818C193.607 66.735 194.461 66.4616 195.623 66.4616C196.785 66.4616 197.622 66.735 198.135 67.2818C198.647 67.8286 198.904 68.5292 198.904 69.3836V70.255C198.904 71.1094 198.647 71.81 198.135 72.3568C197.622 72.9036 196.785 73.177 195.623 73.177ZM192.803 77.9445H198.391V104.601H192.803V77.9445ZM212.214 104.601C210.266 104.601 208.797 104.106 207.805 103.115C206.814 102.089 206.319 100.654 206.319 98.8085V82.5069H202.167V77.9445H204.422C205.345 77.9445 205.977 77.7394 206.319 77.3293C206.695 76.9192 206.883 76.2528 206.883 75.3301V70.6652H211.907V77.9445H217.494V82.5069H211.907V100.039H217.084V104.601H212.214ZM224.837 73.177C223.675 73.177 222.82 72.9036 222.274 72.3568C221.761 71.81 221.505 71.1094 221.505 70.255V69.3836C221.505 68.5292 221.761 67.8286 222.274 67.2818C222.82 66.735 223.675 66.4616 224.837 66.4616C225.999 66.4616 226.836 66.735 227.349 67.2818C227.861 67.8286 228.118 68.5292 228.118 69.3836V70.255C228.118 71.1094 227.861 71.81 227.349 72.3568C226.836 72.9036 225.999 73.177 224.837 73.177ZM222.017 77.9445H227.605V104.601H222.017V77.9445ZM234.046 104.601V77.9445H239.634V82.3531H239.89C240.471 80.9178 241.343 79.7216 242.505 78.7647C243.701 77.8078 245.324 77.3293 247.375 77.3293C250.109 77.3293 252.227 78.235 253.731 80.0463C255.269 81.8234 256.038 84.3695 256.038 87.6845V104.601H250.45V88.4021C250.45 84.2328 248.776 82.1481 245.427 82.1481C244.709 82.1481 243.991 82.2506 243.273 82.4556C242.59 82.6265 241.975 82.8999 241.428 83.2759C240.881 83.6518 240.437 84.1302 240.095 84.7112C239.788 85.2922 239.634 85.9757 239.634 86.7617V104.601H234.046ZM285.621 107.113C285.621 109.881 284.561 111.966 282.442 113.367C280.324 114.768 276.872 115.469 272.087 115.469C269.9 115.469 268.037 115.315 266.5 115.008C264.996 114.734 263.748 114.324 262.757 113.777C261.8 113.231 261.1 112.564 260.656 111.778C260.211 110.992 259.989 110.086 259.989 109.061C259.989 107.592 260.382 106.447 261.168 105.627C261.988 104.806 263.116 104.242 264.552 103.935V103.371C262.535 102.722 261.527 101.355 261.527 99.2699C261.527 97.9029 261.988 96.8605 262.911 96.1429C263.834 95.391 264.945 94.8613 266.243 94.5537V94.3487C264.671 93.5968 263.458 92.5545 262.604 91.2216C261.783 89.8546 261.373 88.2654 261.373 86.4542C261.373 83.7201 262.279 81.5158 264.09 79.8412C265.936 78.1666 268.567 77.3293 271.985 77.3293C273.864 77.3293 275.471 77.6027 276.803 78.1495V77.4319C276.803 76.2357 277.077 75.313 277.624 74.6637C278.205 73.9802 279.093 73.6384 280.289 73.6384H284.39V78.1495H278.957V79.2261C280.153 80.0121 281.075 81.0374 281.725 82.3019C282.374 83.5322 282.699 84.9163 282.699 86.4542C282.699 89.154 281.776 91.3412 279.931 93.0158C278.085 94.6562 275.454 95.4764 272.036 95.4764C270.737 95.4764 269.575 95.3397 268.55 95.0663C267.867 95.3056 267.269 95.6473 266.756 96.0916C266.243 96.5017 265.987 97.0485 265.987 97.732C265.987 98.4497 266.312 98.9623 266.961 99.2699C267.61 99.5775 268.533 99.7313 269.729 99.7313H276.291C279.572 99.7313 281.947 100.398 283.416 101.731C284.886 103.029 285.621 104.823 285.621 107.113ZM280.392 107.728C280.392 106.806 280.033 106.071 279.315 105.524C278.632 104.977 277.367 104.704 275.522 104.704H266.5C265.269 105.421 264.654 106.447 264.654 107.78C264.654 108.873 265.081 109.745 265.936 110.394C266.824 111.077 268.311 111.419 270.396 111.419H273.881C278.222 111.419 280.392 110.189 280.392 107.728ZM272.036 91.4267C273.676 91.4267 274.941 91.0678 275.829 90.3501C276.752 89.5983 277.214 88.4534 277.214 86.9155V85.8903C277.214 84.3524 276.752 83.2246 275.829 82.5069C274.941 81.755 273.676 81.3791 272.036 81.3791C270.396 81.3791 269.114 81.755 268.191 82.5069C267.303 83.2246 266.858 84.3524 266.858 85.8903V86.9155C266.858 88.4534 267.303 89.5983 268.191 90.3501C269.114 91.0678 270.396 91.4267 272.036 91.4267ZM322.245 99.1674H322.04C321.664 100.91 320.639 102.363 318.964 103.525C317.324 104.653 315.136 105.216 312.402 105.216C310.284 105.216 308.318 104.823 306.507 104.037C304.696 103.217 303.124 102.038 301.791 100.5C300.492 98.9282 299.467 96.9972 298.715 94.7075C297.998 92.3836 297.639 89.7179 297.639 86.7105C297.639 83.7372 298.015 81.1057 298.766 78.816C299.518 76.492 300.578 74.5441 301.945 72.972C303.312 71.3999 304.952 70.2209 306.866 69.4348C308.78 68.6146 310.916 68.2045 313.274 68.2045C316.486 68.2045 319.203 68.9222 321.425 70.3576C323.646 71.7588 325.372 73.7238 326.602 76.2528L321.886 79.021C321.203 77.3464 320.143 75.9965 318.708 74.9712C317.272 73.9118 315.461 73.3821 313.274 73.3821C310.437 73.3821 308.148 74.2877 306.405 76.099C304.696 77.9103 303.842 80.4735 303.842 83.7885V89.6325C303.842 92.9475 304.696 95.5106 306.405 97.3219C308.148 99.1332 310.437 100.039 313.274 100.039C314.402 100.039 315.478 99.9021 316.503 99.6287C317.529 99.3212 318.417 98.894 319.169 98.3472C319.955 97.7662 320.57 97.0656 321.015 96.2454C321.493 95.391 321.732 94.3999 321.732 93.2721V90.5039H314.35V85.5314H327.32V104.601H322.245V99.1674ZM349.572 100.193H349.367C349.128 100.842 348.803 101.474 348.393 102.089C348.017 102.705 347.522 103.251 346.906 103.73C346.325 104.174 345.608 104.533 344.753 104.806C343.933 105.08 342.976 105.216 341.883 105.216C339.114 105.216 336.961 104.328 335.424 102.551C333.92 100.774 333.168 98.2276 333.168 94.9126V77.9445H338.756V94.1949C338.756 98.3301 340.464 100.398 343.882 100.398C344.6 100.398 345.3 100.312 345.984 100.141C346.667 99.9363 347.265 99.6458 347.778 99.2699C348.325 98.894 348.752 98.4155 349.059 97.8345C349.401 97.2536 349.572 96.5701 349.572 95.784V77.9445H355.16V104.601H349.572V100.193ZM364.442 73.177C363.28 73.177 362.426 72.9036 361.879 72.3568C361.367 71.81 361.11 71.1094 361.11 70.255V69.3836C361.11 68.5292 361.367 67.8286 361.879 67.2818C362.426 66.735 363.28 66.4616 364.442 66.4616C365.604 66.4616 366.442 66.735 366.954 67.2818C367.467 67.8286 367.723 68.5292 367.723 69.3836V70.255C367.723 71.1094 367.467 71.81 366.954 72.3568C366.442 72.9036 365.604 73.177 364.442 73.177ZM361.623 77.9445H367.211V104.601H361.623V77.9445ZM390.415 100.193H390.158C389.577 101.765 388.62 102.995 387.288 103.884C385.989 104.772 384.451 105.216 382.674 105.216C379.291 105.216 376.676 104.003 374.831 101.577C372.985 99.1161 372.063 95.6815 372.063 91.2729C372.063 86.8643 372.985 83.4467 374.831 81.0203C376.676 78.5597 379.291 77.3293 382.674 77.3293C384.451 77.3293 385.989 77.7736 387.288 78.6622C388.62 79.5166 389.577 80.7469 390.158 82.3531H390.415V66.6666H396.002V104.601H390.415V100.193ZM384.366 100.398C386.074 100.398 387.51 99.9876 388.672 99.1674C389.834 98.313 390.415 97.2023 390.415 95.8353V86.7105C390.415 85.3435 389.834 84.2498 388.672 83.4296C387.51 82.5753 386.074 82.1481 384.366 82.1481C382.418 82.1481 380.863 82.7803 379.701 84.0448C378.539 85.2751 377.958 86.9155 377.958 88.966V93.5797C377.958 95.6302 378.539 97.2877 379.701 98.5522C380.863 99.7825 382.418 100.398 384.366 100.398ZM412.909 105.216C410.995 105.216 409.286 104.892 407.782 104.242C406.279 103.593 404.997 102.67 403.938 101.474C402.878 100.244 402.058 98.7744 401.477 97.0656C400.93 95.3227 400.657 93.3917 400.657 91.2729C400.657 89.154 400.93 87.2402 401.477 85.5314C402.058 83.7885 402.878 82.3189 403.938 81.1228C404.997 79.8925 406.279 78.9527 407.782 78.3033C409.286 77.654 410.995 77.3293 412.909 77.3293C414.857 77.3293 416.566 77.6711 418.035 78.3546C419.539 79.0381 420.786 79.995 421.777 81.2253C422.768 82.4215 423.503 83.8227 423.982 85.4289C424.494 87.0351 424.75 88.761 424.75 90.6065V92.7082H406.45V93.5797C406.45 95.6302 407.048 97.3219 408.244 98.6547C409.474 99.9534 411.217 100.603 413.473 100.603C415.113 100.603 416.497 100.244 417.625 99.5262C418.753 98.8085 419.71 97.8345 420.496 96.6042L423.776 99.8338C422.785 101.474 421.35 102.79 419.47 103.781C417.591 104.738 415.404 105.216 412.909 105.216ZM412.909 81.6867C411.952 81.6867 411.063 81.8576 410.243 82.1993C409.457 82.5411 408.774 83.0195 408.193 83.6347C407.646 84.2498 407.219 84.9846 406.911 85.839C406.603 86.6934 406.45 87.6332 406.45 88.6585V89.0173H418.855V88.5047C418.855 86.4542 418.326 84.8137 417.266 83.5834C416.207 82.3189 414.754 81.6867 412.909 81.6867Z"/><path fill="#0D9373" d="M44.1505 60.5391H10.7105C7.32748 60.5391 5.63248 64.6291 8.02548 67.0221L42.5315 101.528C44.9235 103.92 49.0145 102.226 49.0145 98.8431V65.4031C49.0145 62.7171 46.8365 60.5391 44.1505 60.5391Z"/><path fill="#0D9373" d="M105.744 47.7301L61.8234 3.80912C59.9314 1.91712 57.3654 0.854126 54.6904 0.854126H4.40247C1.97147 0.854126 0.000427246 2.82513 0.000427246 5.25613V48.8911C0.000427246 50.6851 1.45441 52.1391 3.24841 52.1391H44.1514C51.4764 52.1391 57.4144 58.0771 57.4144 65.4021V106.306C57.4144 108.1 58.8684 109.554 60.6624 109.554H104.298C106.729 109.554 108.7 107.583 108.7 105.152V54.8641C108.7 52.1881 107.637 49.6221 105.745 47.7311L105.744 47.7301Z"/></svg>